
<svg width="24" height="24" viewBox="0 0 24 24" xmlns="http://www.w3.org/2000/svg">
  <path d="M15.5,5h-7C7.67,5,7,5.67,7,6.5v11C7,18.33,7.67,19,8.5,19h7c0.83,0,1.5-0.67,1.5-1.5v-11C17,5.67,16.33,5,15.5,5z M15,17H9V7h6V17z" fill="#4e1a3d"/>
  <path d="M22.12,11.12L20,6.5V5c0-1.1-0.9-2-2-2h-2c-1.1,0-2,0.9-2,2v1.5h-4V5c0-1.1-0.9-2-2-2H6C4.9,3,4,3.9,4,5v1.5L1.88,11.12c-0.39,0.66-0.39,1.48,0,2.15l5.08,8.65C7.25,22.59,8.04,23,8.86,23h6.28c0.82,0,1.61-0.41,1.9-1.08l5.08-8.65C22.51,12.6,22.51,11.78,22.12,11.12z M17.5,4v1h-2V4H17.5z M6.5,4v1h-2V4H6.5z M19.84,12.23l-5.08,8.65c-0.05,0.09-0.14,0.12-0.2,0.12H9.44c-0.06,0-0.15-0.03-0.2-0.12l-5.08-8.65c-0.04-0.06-0.04-0.15,0-0.21l1.92-4.02H18l1.92,4.02C19.88,12.08,19.88,12.17,19.84,12.23z" fill="#4e1a3d"/>
  <rect x="11" y="11" width="2" height="6" fill="#4e1a3d"/>
</svg>
